<?xml version="1.0" encoding="UTF-8"?>
<svg id="Layer_1" xmlns="http://www.w3.org/2000/svg" version="1.1" viewBox="11 10 610 50">
  <!-- Generator: Adobe Illustrator 29.4.0, SVG Export Plug-In . SVG Version: 2.1.0 Build 152)  -->
  <defs>
    <style>
      .st0 {
        fill: #9b3214;
      }

      .st1 {
        fill: #797d82;
      }
    </style>
  </defs>
  <path class="st1" d="M314.7,32.3h3.9c4.2,0,7.5-.3,7.5-8.4s-3.8-8-7.5-8h-3.9v16.4ZM304,49.9h4.5V16h-4.5v-1.3h15.3c3.4,0,13.5.7,13.5,9s-8.7,9.9-13.5,9.9h-4.6v16.4h4.5v1.3h-15.1v-1.3Z"/>
  <path class="st1" d="M330,49.9h4.1v-21.2h-4.2v-1.3h4c2.2,0,3.6-.2,5.2-.4v6.1h.1c.8-2,2.9-6.7,7.2-6.7s3.8,1.4,3.8,3.5-1,3-2.8,3-2.5-.8-2.5-2.5.1-.5.1-.8c0-.6-.1-.9-.9-.9-1.4,0-4.7,4.8-4.7,9.5v11.7h4.7v1.3h-14.1v-1.3Z"/>
  <path class="st1" d="M362.6,50.9c5.8,0,5.8-5.4,5.8-11.6s0-11.6-5.8-11.6-5.8,5.4-5.8,11.6,0,11.6,5.8,11.6M350.7,39.3c0-6.3,4.9-12.8,12-12.8s12,6.6,12,12.8-4.9,12.8-12,12.8-12-6.6-12-12.8"/>
  <path class="st1" d="M393.2,50.9c4,0,4.1-4.5,4.1-11.3s-.1-11.9-4.1-11.9-7,5.7-7,11.6,1.6,11.6,7,11.6M377.3,60.7h3.6v-32h-4.4v-1.2h4c2.2,0,3.9-.2,5.4-.4v4.7h.1c.7-1.6,2.7-5.2,7.2-5.2s10.3,6.2,10.3,13.1-4.7,12.6-10.3,12.6-6.1-2.7-6.9-4.7h-.1v13.2h4.2v1.3h-13.1v-1.3Z"/>
  <path class="st1" d="M422.8,33.1c0-3.1-1.1-5.3-4.5-5.3-5.5,0-5.6,3.7-5.6,8.5h10.1v-3.2ZM428.8,43.7c-.9,2.8-2.9,8.4-10.3,8.4s-12-5.9-12-12.7,5.3-13,11.8-13,10.2,5.7,10.2,11h-15.8v4.7c0,3.4,0,8.6,5.7,8.6s8.8-5.3,9.4-7.5l1,.4Z"/>
  <path class="st1" d="M430.9,49.9h4.1v-21.2h-4.2v-1.3h4c2.2,0,3.6-.2,5.2-.4v6.1h.1c.8-2,2.9-6.7,7.2-6.7s3.7,1.4,3.7,3.5-1,3-2.8,3-2.6-.8-2.6-2.5.1-.5.1-.8c0-.6-.1-.9-.9-.9-1.4,0-4.7,4.8-4.7,9.5v11.7h4.7v1.3h-14.1v-1.3Z"/>
  <path class="st1" d="M468.9,46.8c-.9,2.2-2.5,5.4-7.5,5.4s-5.5-1.6-5.5-6.8v-16.7h-4v-1.3h4v-6.5c2,0,3.6-.3,5.3-.7v7.1h6v1.3h-6v16.7c0,2.1,0,4.5,2.6,4.5s3.3-2.1,4.1-3.4l1,.4Z"/>
  <path class="st1" d="M473.6,19.3c0-1.7,1.4-3.1,3.1-3.1s3.1,1.4,3.1,3.1-1.4,3.1-3.1,3.1-3.1-1.4-3.1-3.1M470.6,49.9h3.6v-21.2h-4.2v-1.3h4c2.2,0,3.9-.2,5.5-.4v22.9h3.9v1.3h-12.8v-1.3Z"/>
  <path class="st1" d="M502.7,33.1c0-3.1-1.2-5.3-4.5-5.3-5.5,0-5.6,3.7-5.6,8.5h10.1v-3.2ZM508.7,43.7c-.9,2.8-2.9,8.4-10.3,8.4s-12-5.9-12-12.7,5.3-13,11.8-13,10.2,5.7,10.2,11h-15.8v4.7c0,3.4,0,8.6,5.7,8.6s8.8-5.3,9.4-7.5l1,.4Z"/>
  <path class="st1" d="M511.9,42.2h1.1c.6,2.1,2,8.6,7.7,8.6s5.9-2.4,5.9-5.1c0-4.7-6-3.4-9.8-4.9-2.7-1-4.6-2.9-4.6-6.6s2.8-7.8,7.2-7.8,4.3,1.2,5.4,2l1.2-1.4h.8v6.6h-1c-.5-1.7-1.9-6-6.4-6s-5.1,2.1-5.1,4.3c0,3.5,4.6,3.3,7.4,3.8,4.1.7,7,2.3,7,7.9s-3.3,8.3-8,8.3-5-1.7-6.4-2.8l-1.6,1.8h-.8v-9Z"/>
  <text x="536" y="51" style="fill:#0563C1;font-family:Georgia,'Times New Roman',serif;font-size:30px;font-style:italic;">.com</text>
  <path class="st0" d="M33.5,26.5h5.1c4.9,0,6.9-1.7,7.5-4.4.6-2.9-.3-4.4-5.6-4.4h-5l-1.9,8.9ZM29.9,43.5h5.1c5.9,0,8.4-1.5,9.1-4.9.7-3.4-1.1-4.9-7-4.9h-5.1l-2.1,9.8ZM19.9,10.1h27.7c12.3,0,16.7,3.7,15.2,10.6-1.2,5.5-5.9,8.1-11.5,9.4h0c5.7.4,10.6,3.2,9.1,10.2-.7,3.1-2.4,5.8-4.5,7.3-3.1,2.2-5.9,3.1-14.7,3.1H11.3L19.9,10.1Z"/>
  <path class="st0" d="M86.1,28.1h6.5c3.7,0,6.7-1.1,7.5-4.9.8-3.6-1.6-4.8-5.7-4.8h-6.2l-2.1,9.8ZM72.8,10.1h28.9c11.1,0,17.5,2.2,15.5,11.2-1.1,5.3-5.6,8.7-10.8,9.6v.6c3.8.1,6.7,1.5,6.5,5.6l-.7,13.6h-17.1l.5-9c.3-5-.3-5.7-6.2-5.7h-5.2l-3.1,14.7h-17.1l8.6-40.6Z"/>
  <path class="st0" d="M151.8,35l-3.3-14.2-9.6,14.2h12.9ZM141,10.1h21.3l12.1,40.6h-18.8l-1.5-6.7h-21l-4.6,6.7h-16.7l29.3-40.6Z"/>
  <polygon class="st0" points="180.9 10.1 205.9 10.1 213.8 37.3 213.9 37.3 219.7 10.1 234.5 10.1 225.9 50.6 201.7 50.6 193.4 21.8 193.2 21.8 187.1 50.6 172.3 50.6 180.9 10.1"/>
  <path class="st0" d="M253.2,41.4h4.7c7.8,0,13.2-3.5,14.8-11.1,1.6-7.6-2.3-11.1-10.1-11.1h-4.7l-4.7,22.1ZM242.8,10.1h21.7c12,0,19.5,1.1,23.9,6.7,2.3,3,3.3,7.9,2,13.9-1.3,6-4.5,11.7-8.6,14.5-5.6,3.8-10.4,5.4-22.9,5.4h-24.7l8.6-40.6Z"/>
</svg>